<svg width="31" height="31" viewBox="0 0 31 31" fill="none" xmlns="http://www.w3.org/2000/svg">
<path d="M24.5462 18.6229C23.5862 18.6237 22.6408 18.8581 21.7915 19.3058C20.9423 19.7536 20.2148 20.4012 19.6717 21.1929L11.4071 17.4611C11.9941 16.0437 11.9964 14.4515 11.4134 13.0323L19.6666 9.28154C20.4715 10.4456 21.6669 11.2826 23.036 11.6408C24.4051 11.9989 25.8572 11.8545 27.129 11.2338C28.4008 10.613 29.4079 9.55695 29.9678 8.25721C30.5276 6.95748 30.6031 5.50013 30.1805 4.14952C29.7578 2.79891 28.8652 1.6445 27.6643 0.89569C26.4635 0.146878 25.034 -0.146736 23.6352 0.068107C22.2365 0.28295 20.961 0.992019 20.0402 2.06669C19.1195 3.14137 18.6144 4.51047 18.6166 5.92565C18.622 6.2606 18.6559 6.59449 18.7182 6.92366L9.94433 10.9106C9.10166 10.1211 8.04673 9.59496 6.90914 9.39679C5.77155 9.19861 4.60084 9.33705 3.54085 9.7951C2.48085 10.2531 1.57774 11.0108 0.942459 11.9751C0.307177 12.9394 -0.0326048 14.0682 -0.0351419 15.2229C-0.037679 16.3776 0.297139 17.508 0.928177 18.475C1.55922 19.4421 2.45899 20.2037 3.51696 20.6664C4.57493 21.1291 5.74502 21.2727 6.88347 21.0795C8.02192 20.8863 9.07916 20.3648 9.92529 19.579L18.722 23.5508C18.6609 23.8796 18.6273 24.213 18.6217 24.5475C18.6214 25.7196 18.9688 26.8655 19.6198 27.8402C20.2709 28.8149 21.1963 29.5746 22.2792 30.0233C23.362 30.4719 24.5536 30.5894 25.7032 30.3608C26.8529 30.1322 27.9089 29.5678 28.7377 28.739C29.5665 27.9101 30.1309 26.8541 30.3595 25.7045C30.5881 24.5549 30.4707 23.3633 30.022 22.2805C29.5733 21.1976 28.8136 20.2721 27.8389 19.6211C26.8642 18.9701 25.7183 18.6227 24.5462 18.6229ZM24.5462 2.53928C25.216 2.53903 25.8709 2.73743 26.4279 3.10937C26.985 3.48132 27.4192 4.01011 27.6757 4.62886C27.9322 5.24762 27.9995 5.92854 27.8689 6.58552C27.7384 7.24249 27.416 7.84601 26.9425 8.31972C26.4689 8.79344 25.8655 9.11609 25.2086 9.24686C24.5517 9.37762 23.8707 9.31064 23.2519 9.05437C22.633 8.7981 22.1041 8.36406 21.7319 7.80715C21.3598 7.25024 21.1611 6.59546 21.1611 5.92565C21.1618 5.02796 21.5186 4.1672 22.1533 3.53232C22.7879 2.89743 23.6485 2.54029 24.5462 2.53928ZM5.92437 18.6229C5.25456 18.6232 4.59971 18.4248 4.04266 18.0529C3.48561 17.6809 3.05137 17.1521 2.79487 16.5334C2.53837 15.9146 2.47113 15.2337 2.60165 14.5767C2.73217 13.9197 3.05459 13.3162 3.52813 12.8425C4.00167 12.3688 4.60506 12.0461 5.26199 11.9154C5.91891 11.7846 6.59986 11.8516 7.21871 12.1079C7.83757 12.3641 8.36652 12.7982 8.73867 13.3551C9.11083 13.912 9.30947 14.5668 9.30947 15.2366C9.30846 16.1342 8.95153 16.9947 8.31696 17.6295C7.68239 18.2643 6.82196 18.6216 5.92437 18.6229ZM24.5462 27.9339C23.8765 27.9339 23.2217 27.7353 22.6648 27.3632C22.108 26.9911 21.6739 26.4622 21.4176 25.8434C21.1613 25.2246 21.0942 24.5437 21.2249 23.8868C21.3556 23.23 21.6781 22.6266 22.1517 22.153C22.6253 21.6794 23.2287 21.3569 23.8856 21.2262C24.5425 21.0955 25.2233 21.1626 25.8421 21.4189C26.4609 21.6752 26.9898 22.1092 27.3619 22.6661C27.734 23.223 27.9326 23.8777 27.9326 24.5475C27.9319 25.4454 27.5749 26.3064 26.94 26.9413C26.3051 27.5762 25.4441 27.9332 24.5462 27.9339Z" fill="black"/>
</svg>
