<svg width="31" height="31" viewBox="0 0 31 31" fill="none" xmlns="http://www.w3.org/2000/svg">
<path d="M13.9132 15.686C13.854 15.627 13.8071 15.557 13.7751 15.4798C13.7431 15.4027 13.7266 15.32 13.7266 15.2365C13.7266 15.153 13.7431 15.0703 13.7751 14.9932C13.8071 14.9161 13.854 14.846 13.9132 14.787L19.7361 8.96531C20.0934 8.60819 20.2942 8.12375 20.2943 7.61858C20.2945 7.11341 20.0939 6.62888 19.7368 6.27159C19.3796 5.91429 18.8952 5.7135 18.39 5.71338C17.8849 5.71326 17.4003 5.91382 17.043 6.27095L11.2201 12.0939C10.3881 12.9282 9.9209 14.0583 9.9209 15.2365C9.9209 16.4147 10.3881 17.5448 11.2201 18.3791L17.043 24.2021C17.4003 24.5592 17.8849 24.7598 18.39 24.7596C18.8952 24.7595 19.3796 24.5587 19.7368 24.2014C20.0939 23.8441 20.2945 23.3596 20.2943 22.8544C20.2942 22.3493 20.0934 21.8648 19.7361 21.5077L13.9132 15.686Z" fill="#121212"/>
</svg>
